<svg width="297" height="115" viewBox="0 0 297 115" fill="none" xmlns="http://www.w3.org/2000/svg">
<g clip-path="url(#clip0_681_567)">
<path d="M251.306 0V61.4636H239.762L238.292 58.0863C234.61 61.1981 229.907 62.9974 224.631 62.9974C210.735 62.9974 200.836 52.858 200.836 38.7365C200.836 24.6149 210.735 14.5197 224.631 14.5197C228.812 14.5197 232.641 15.6553 235.882 17.6759V0H251.306ZM236.852 38.7438C236.852 32.8076 232.553 28.3463 226.711 28.3463C220.869 28.3463 216.57 32.815 216.57 38.7438C216.57 44.68 220.861 49.1414 226.711 49.1414C232.56 49.1414 236.852 44.68 236.852 38.7438Z" fill="white"/>
<path d="M84.4646 47.755V61.4636H73.7283C63.7122 61.4636 57.6276 55.3209 57.6276 45.2183V28.0734H49.3384V23.1327L69.6351 2.72839H72.8391V16.0166H84.2147V28.0734H73.2286V42.5341C73.2286 45.7861 75.1833 47.755 78.4755 47.755H84.4646Z" fill="white"/>
<path d="M139.542 15.9724V61.4194H127.483L126.146 58.2042C122.434 61.2203 117.739 62.9532 112.477 62.9532C98.6251 62.9532 88.7266 52.8137 88.7266 38.6922C88.7266 24.6149 98.6251 14.6008 112.477 14.6008C117.812 14.6008 122.574 16.3928 126.315 19.4825L127.909 15.965L139.542 15.9724ZM124.698 38.7291C124.698 32.8298 120.406 28.3979 114.557 28.3979C108.678 28.3979 104.416 32.8298 104.416 38.7291C104.416 44.6653 108.707 49.0971 114.557 49.0971C120.406 49.0971 124.698 44.6653 124.698 38.7291Z" fill="white"/>
<path d="M194.142 33.7515V61.4636H178.541V35.9195C178.541 30.6322 176.557 28.007 172.633 28.007C167.768 28.007 164.968 31.4213 164.968 37.2026V61.471H149.367V16.0167H160.309L162.455 20.7066C165.828 16.9384 170.854 14.6746 176.711 14.6746C187.234 14.6746 194.142 22.1741 194.142 33.7515Z" fill="white"/>
<path d="M297 47.5485V61.4635H257.891V59.1407L275.241 29.8358H259.427V16.0166H296.817V18.5681L279.709 47.5485H297Z" fill="white"/>
<path d="M41.637 30.7797L30.0336 42.4235C30.1659 42.7995 30.2321 43.2125 30.2321 43.6697C30.2321 46.8332 27.1089 48.6325 23.7874 48.6915L11.7798 60.7409C15.1528 62.1641 19.1578 62.9089 23.6551 62.9089C37.2867 62.9089 47.1411 56.2279 47.1411 43.36C47.1411 37.3574 44.8925 33.4639 41.637 30.7797Z" fill="white"/>
<path d="M16.6886 42.4457H0C0 50.572 3.72573 56.6114 10.1116 59.9519L21.5534 48.4704C18.7977 47.8288 16.6886 45.8378 16.6886 42.4457Z" fill="white"/>
<path d="M27.2044 24.7698C21.6782 23.3761 17.2544 22.27 17.2544 18.9221C17.2544 16.1716 20.0248 14.9179 22.9054 14.9179C26.2564 14.9179 29.0268 16.6656 29.0268 20.3896H45.2451C45.2451 8.39919 37.1764 1.15039 23.0965 1.15039C9.25179 1.15039 0.756836 7.79451 0.756836 19.4014C0.756836 32.815 11.5886 35.4255 20.0762 37.5419C23.9636 38.4858 27.344 39.2969 29.0488 40.9413L40.2187 29.7326C36.346 27.1369 31.4518 25.8759 27.2044 24.7698Z" fill="white"/>
<path d="M42.5629 70.0914H3.53467V109.256H42.5629V70.0914Z" fill="#155998"/>
<path d="M40.9318 101.277V107.611H24.1035V81.0936H40.9318V87.4059H31.1802V91.3068H39.6604V97.302H31.1802V101.269H40.9318V101.277Z" fill="white"/>
<path d="M56.4664 107.619L53.1963 101.557L49.8601 107.619H42.2837L48.8901 97.0071L42.7687 87.1626H50.3377L53.211 92.3171L56.2166 87.1626H63.6827L57.5099 96.8228L64.1237 107.619H56.4664Z" fill="#155998"/>
<path d="M88.1391 97.3831C88.1391 103.754 83.7887 108.304 77.6968 108.304C75.8964 108.304 74.2503 107.818 72.8394 106.947V115H66.064V87.1625H70.7303L71.5901 88.7848C73.2288 87.3321 75.3379 86.4915 77.7041 86.4915C83.7887 86.4915 88.1391 91.0118 88.1391 97.3831ZM81.2388 97.3831C81.2388 94.6989 79.3502 92.7005 76.7782 92.7005C74.2135 92.7005 72.3249 94.6915 72.3249 97.3831C72.3249 100.067 74.2135 102.066 76.7782 102.066C79.3355 102.066 81.2388 100.075 81.2388 97.3831Z" fill="#155998"/>
<path d="M90.1304 97.3831C90.1304 91.0414 94.8041 86.4841 101.293 86.4841C107.767 86.4841 112.455 91.0414 112.455 97.3831C112.455 103.703 107.76 108.282 101.293 108.282C94.8041 108.282 90.1304 103.703 90.1304 97.3831ZM101.293 101.955C103.791 101.955 105.584 100.089 105.584 97.3831C105.584 94.6916 103.791 92.8112 101.293 92.8112C98.7943 92.8112 97.0013 94.6768 97.0013 97.3831C97.0013 100.089 98.7943 101.955 101.293 101.955Z" fill="#155998"/>
</g>
<defs>
<clipPath id="clip0_681_567">
<rect width="297" height="115" fill="white"/>
</clipPath>
</defs>
</svg>
