<svg width="95" height="36" viewBox="0 0 95 36" fill="none" xmlns="http://www.w3.org/2000/svg">
<g clip-path="url(#clip0_1080_1284)">
<path d="M80.3831 0V19.242H76.6906L76.2191 18.1851C75.0394 19.16 73.5368 19.7224 71.8485 19.7224C67.4035 19.7224 64.2358 16.5494 64.2358 12.1273C64.2358 7.70525 67.4012 4.54628 71.8485 4.54628C73.1861 4.54628 74.41 4.90014 75.4481 5.53287V0H80.3831ZM75.7593 12.1273C75.7593 10.269 74.3845 8.87228 72.5173 8.87228C70.6478 8.87228 69.2753 10.2713 69.2753 12.1273C69.2753 13.9857 70.6478 15.3824 72.5173 15.3824C74.3868 15.3847 75.7593 13.9857 75.7593 12.1273Z" fill="#299F9E"/>
<path d="M27.0182 14.9488V19.242H23.5858C20.3833 19.242 18.4348 17.318 18.4348 14.1567V8.78791H15.7827V7.24123L22.2737 0.855347H23.2978V5.01496H26.9369V8.78791H23.4232V13.3154C23.4232 14.3348 24.0502 14.9488 25.1023 14.9488H27.0182Z" fill="#299F9E"/>
<path d="M44.6331 4.99855V19.2256H40.7757L40.3484 18.2203C39.1617 19.1647 37.6591 19.7084 35.9777 19.7084C31.549 19.7084 28.3813 16.5353 28.3813 12.1133C28.3813 7.70757 31.5467 4.5697 35.9777 4.5697C37.6846 4.5697 39.2081 5.12979 40.4041 6.09997L40.915 5.0009L44.6331 4.99855ZM39.8862 12.125C39.8862 10.2783 38.5114 8.89101 36.6442 8.89101C34.7631 8.89101 33.4022 10.2783 33.4022 12.125C33.4022 13.9833 34.7771 15.3706 36.6442 15.3706C38.5137 15.3683 39.8862 13.981 39.8862 12.125Z" fill="#299F9E"/>
<path d="M62.0968 10.5666V19.242H57.1061V11.2438C57.1061 9.58702 56.4721 8.76681 55.218 8.76681C53.662 8.76681 52.7656 9.83543 52.7656 11.6446V19.242H47.7749V5.01496H51.2747L51.9598 6.48196C53.0396 5.30086 54.6467 4.59314 56.5208 4.59314C59.8882 4.59314 62.0968 6.94127 62.0968 10.5666Z" fill="#299F9E"/>
<path d="M94.9998 14.8856V19.2421H82.4917V18.5156L88.0421 9.34101H82.984V5.01501H94.9441V5.81413L89.4727 14.8856H94.9998Z" fill="#299F9E"/>
<path d="M13.3162 9.63623L9.60509 13.2803C9.64689 13.3998 9.67011 13.5287 9.67011 13.6716C9.67011 14.6606 8.6715 15.2253 7.60787 15.2441L3.76904 19.0147C4.84893 19.46 6.12854 19.6943 7.56839 19.6943C11.9297 19.6943 15.0812 17.6039 15.0812 13.5756C15.0788 11.6961 14.3589 10.4752 13.3162 9.63623Z" fill="#299F9E"/>
<path d="M5.33674 13.2874H0C0 15.8323 1.19368 17.7235 3.2327 18.7687L6.89271 15.1738C6.01254 14.9723 5.33674 14.3513 5.33674 13.2874Z" fill="#299F9E"/>
<path d="M8.70199 7.75451C6.93469 7.31863 5.51806 6.9718 5.51806 5.92428C5.51806 5.06423 6.40287 4.67288 7.32484 4.67288C8.39776 4.67288 9.28257 5.2189 9.28257 6.38594H14.4707C14.4707 2.63408 11.8882 0.363281 7.38754 0.363281C2.95884 0.363281 0.241699 2.44426 0.241699 6.0766C0.241699 10.2761 3.70663 11.0916 6.42145 11.7548C7.6639 12.05 8.74611 12.3031 9.29186 12.8187L12.8636 9.31055C11.6258 8.49504 10.0606 8.09899 8.70199 7.75451Z" fill="#299F9E"/>
<path d="M13.6158 21.9417H1.13086V34.2026H13.6158V21.9417Z" fill="#145997"/>
<path d="M13.0931 31.7044V33.687H7.70996V25.3865H13.0931V27.362H9.97424V28.5853H12.6867V30.46H9.97424V31.7021H13.0931V31.7044Z" fill="white"/>
<path d="M18.0628 33.6893L17.0154 31.7935L15.9471 33.6893H13.5249L15.6382 30.3663L13.6805 27.2847H16.1027L17.0223 28.897L17.9838 27.2847H20.3712L18.3972 30.3077L20.5128 33.687H18.0628V33.6893Z" fill="#145997"/>
<path d="M28.1907 30.4858C28.1907 32.48 26.7996 33.9048 24.8511 33.9048C24.2752 33.9048 23.748 33.7525 23.2975 33.4807V36.0022H21.1284V27.287H22.6217L22.8957 27.7955C23.4206 27.3409 24.094 27.076 24.8511 27.076C26.7996 27.076 28.1907 28.4915 28.1907 30.4858ZM25.9844 30.4858C25.9844 29.6445 25.3806 29.0211 24.5585 29.0211C23.7364 29.0211 23.1326 29.6445 23.1326 30.4858C23.1326 31.3271 23.7364 31.9504 24.5585 31.9504C25.376 31.9528 25.9844 31.3271 25.9844 30.4858Z" fill="#145997"/>
<path d="M28.8291 30.4858C28.8291 28.5009 30.3247 27.0737 32.4009 27.0737C34.4701 27.0737 35.9726 28.5009 35.9726 30.4858C35.9726 32.4637 34.4724 33.8978 32.4009 33.8978C30.3224 33.8978 28.8291 32.466 28.8291 30.4858ZM32.3985 31.9176C33.1974 31.9176 33.771 31.3341 33.771 30.4881C33.771 29.6468 33.1974 29.0586 32.3985 29.0586C31.5997 29.0586 31.026 29.6421 31.026 30.4881C31.026 31.3341 31.5997 31.9176 32.3985 31.9176Z" fill="#145997"/>
</g>
<defs>
<clipPath id="clip0_1080_1284">
<rect width="95" height="36" fill="white"/>
</clipPath>
</defs>
</svg>
