<svg width="113" height="166" viewBox="0 0 113 166" fill="none" xmlns="http://www.w3.org/2000/svg">
<g clip-path="url(#clip0_1080_362)">
<path d="M83.1732 108.532C81.5571 107.454 79.0237 106.914 75.576 106.914H69.1086V122.02H76.4932C80.0108 122.02 82.4103 121.347 83.6857 119.997C84.9611 118.65 85.5988 116.67 85.5988 114.063C85.5988 111.454 84.7893 109.611 83.1732 108.532ZM83.1732 108.532C81.5571 107.454 79.0237 106.914 75.576 106.914H69.1086V122.02H76.4932C80.0108 122.02 82.4103 121.347 83.6857 119.997C84.9611 118.65 85.5988 116.67 85.5988 114.063C85.5988 111.454 84.7893 109.611 83.1732 108.532ZM74.321 83.0204C73.66 82.5801 72.6262 82.3585 71.2139 82.3585H68.5728V88.5339H71.5896C73.0281 88.5339 74.0094 88.2569 74.5306 87.7058C75.0518 87.1548 75.311 86.3471 75.311 85.28C75.311 84.2158 74.982 83.4606 74.321 83.0204ZM83.1732 108.532C81.5571 107.454 79.0237 106.914 75.576 106.914H69.1086V122.02H76.4932C80.0108 122.02 82.4103 121.347 83.6857 119.997C84.9611 118.65 85.5988 116.67 85.5988 114.063C85.5988 111.454 84.7893 109.611 83.1732 108.532ZM83.1732 108.532C81.5571 107.454 79.0237 106.914 75.576 106.914H69.1086V122.02H76.4932C80.0108 122.02 82.4103 121.347 83.6857 119.997C84.9611 118.65 85.5988 116.67 85.5988 114.063C85.5988 111.454 84.7893 109.611 83.1732 108.532ZM74.321 83.0204C73.66 82.5801 72.6262 82.3585 71.2139 82.3585H68.5728V88.5339H71.5896C73.0281 88.5339 74.0094 88.2569 74.5306 87.7058C75.0518 87.1548 75.311 86.3471 75.311 85.28C75.311 84.2158 74.982 83.4606 74.321 83.0204ZM74.321 83.0204C73.66 82.5801 72.6262 82.3585 71.2139 82.3585H68.5728V88.5339H71.5896C73.0281 88.5339 74.0094 88.2569 74.5306 87.7058C75.0518 87.1548 75.311 86.3471 75.311 85.28C75.311 84.2158 74.982 83.4606 74.321 83.0204ZM83.1732 108.532C81.5571 107.454 79.0237 106.914 75.576 106.914H69.1086V122.02H76.4932C80.0108 122.02 82.4103 121.347 83.6857 119.997C84.9611 118.65 85.5988 116.67 85.5988 114.063C85.5988 111.454 84.7893 109.611 83.1732 108.532ZM83.1732 108.532C81.5571 107.454 79.0237 106.914 75.576 106.914H69.1086V122.02H76.4932C80.0108 122.02 82.4103 121.347 83.6857 119.997C84.9611 118.65 85.5988 116.67 85.5988 114.063C85.5988 111.454 84.7893 109.611 83.1732 108.532ZM74.321 83.0204C73.66 82.5801 72.6262 82.3585 71.2139 82.3585H68.5728V88.5339H71.5896C73.0281 88.5339 74.0094 88.2569 74.5306 87.7058C75.0518 87.1548 75.311 86.3471 75.311 85.28C75.311 84.2158 74.982 83.4606 74.321 83.0204ZM56.5 52.855C25.2959 52.855 0 78.1833 0 109.427C0 140.672 25.2959 166 56.5 166C87.7041 166 113 140.672 113 109.427C113 78.1833 87.7041 52.855 56.5 52.855ZM65.9725 79.9997H71.2576C73.593 79.9997 75.2965 80.4458 76.368 81.3439C77.4425 82.2419 77.9783 83.6239 77.9783 85.4899C77.9783 87.3589 77.4309 88.7263 76.336 89.5923C75.2411 90.4611 73.5639 90.8926 71.3042 90.8926H68.5728V95.4148H65.9725V79.9997ZM29.3958 89.8022C28.9358 89.4727 28.1379 89.1695 27.0081 88.8983C25.8753 88.6272 25.0163 88.3764 24.431 88.149C23.8428 87.9216 23.3216 87.6213 22.8673 87.2539C21.9559 86.5629 21.5016 85.5045 21.5016 84.0787C21.5016 82.653 22.017 81.5538 23.0537 80.7811C24.0874 80.0085 25.3687 79.6236 26.8974 79.6236C27.8816 79.6236 28.8571 79.7869 29.8268 80.1076C30.7965 80.4313 31.6322 80.889 32.3369 81.4751L30.9508 83.4402C30.4936 83.0291 29.8792 82.688 29.0988 82.4256C28.3213 82.1602 27.5555 82.029 26.7984 82.029C26.0413 82.029 25.4211 82.1807 24.9377 82.4897C24.4514 82.7988 24.2097 83.2653 24.2097 83.8921C24.2097 84.5161 24.4514 84.9943 24.9377 85.3237C25.4211 85.6561 26.4519 86.0118 28.0302 86.3938C29.6084 86.7757 30.7994 87.3151 31.6002 88.0061C32.4009 88.6971 32.7999 89.7147 32.7999 91.0588C32.7999 92.4059 32.2932 93.4963 31.2799 94.3331C30.2665 95.1728 28.9387 95.5927 27.2934 95.5927C24.8853 95.5927 22.7479 94.7617 20.8843 93.0998L22.5121 91.1375C24.0699 92.4904 25.6861 93.1669 27.3604 93.1669C28.1961 93.1669 28.86 92.9861 29.3522 92.6245C29.8443 92.2659 30.0918 91.7877 30.0918 91.1929C30.0918 90.5952 29.8588 90.1316 29.3958 89.8022ZM52.7844 122.291C52.7844 127.723 51.2935 131.904 48.3117 134.835C45.3299 137.768 41.5036 139.231 36.8329 139.231C32.1622 139.231 28.3359 137.768 25.357 134.835C22.3752 131.904 20.8843 127.723 20.8843 122.291V101.141H27.241V122.02C27.241 125.472 28.1029 128.207 29.8297 130.222C31.5536 132.237 33.8889 133.243 36.8329 133.243C39.7798 133.243 42.1151 132.237 43.839 130.222C45.5628 128.207 46.4248 125.472 46.4248 122.02V101.141H52.7844V122.291ZM51.3255 95.4148H48.7485L45.5104 84.8514H45.3328L42.0947 95.4148H39.5177L34.1423 79.9997H36.9406L40.8193 91.0938L44.2554 79.9997H46.5878L50.0268 91.0938L53.9026 79.9997H56.698L51.3255 95.4148ZM61.7007 95.4148H59.1003V79.9997H61.7007V95.4148ZM88.1031 124.609C85.427 126.732 81.3241 127.793 75.7915 127.793H69.1086V138.855H62.7519V101.141H75.6837C81.3969 101.141 85.561 102.237 88.1846 104.433C90.8083 106.626 92.1186 110.008 92.1186 114.574C92.1186 119.142 90.7791 122.49 88.1031 124.609ZM92.1186 95.4148H81.0388V79.9997H91.8536V82.446H83.6391V86.5279H91.0179V88.8429H83.6391V92.9657H92.1186V95.4148ZM83.1732 108.532C81.5571 107.454 79.0237 106.914 75.576 106.914H69.1086V122.02H76.4932C80.0108 122.02 82.4103 121.347 83.6857 119.997C84.9611 118.65 85.5988 116.67 85.5988 114.063C85.5988 111.454 84.7893 109.611 83.1732 108.532ZM74.5306 87.7058C75.0518 87.1548 75.311 86.3471 75.311 85.28C75.311 84.2158 74.982 83.4606 74.321 83.0204C73.66 82.5801 72.6262 82.3585 71.2139 82.3585H68.5728V88.5339H71.5896C73.0281 88.5339 74.0094 88.2569 74.5306 87.7058ZM74.321 83.0204C73.66 82.5801 72.6262 82.3585 71.2139 82.3585H68.5728V88.5339H71.5896C73.0281 88.5339 74.0094 88.2569 74.5306 87.7058C75.0518 87.1548 75.311 86.3471 75.311 85.28C75.311 84.2158 74.982 83.4606 74.321 83.0204ZM83.1732 108.532C81.5571 107.454 79.0237 106.914 75.576 106.914H69.1086V122.02H76.4932C80.0108 122.02 82.4103 121.347 83.6857 119.997C84.9611 118.65 85.5988 116.67 85.5988 114.063C85.5988 111.454 84.7893 109.611 83.1732 108.532ZM83.1732 108.532C81.5571 107.454 79.0237 106.914 75.576 106.914H69.1086V122.02H76.4932C80.0108 122.02 82.4103 121.347 83.6857 119.997C84.9611 118.65 85.5988 116.67 85.5988 114.063C85.5988 111.454 84.7893 109.611 83.1732 108.532ZM74.321 83.0204C73.66 82.5801 72.6262 82.3585 71.2139 82.3585H68.5728V88.5339H71.5896C73.0281 88.5339 74.0094 88.2569 74.5306 87.7058C75.0518 87.1548 75.311 86.3471 75.311 85.28C75.311 84.2158 74.982 83.4606 74.321 83.0204ZM83.1732 108.532C81.5571 107.454 79.0237 106.914 75.576 106.914H69.1086V122.02H76.4932C80.0108 122.02 82.4103 121.347 83.6857 119.997C84.9611 118.65 85.5988 116.67 85.5988 114.063C85.5988 111.454 84.7893 109.611 83.1732 108.532ZM83.1732 108.532C81.5571 107.454 79.0237 106.914 75.576 106.914H69.1086V122.02H76.4932C80.0108 122.02 82.4103 121.347 83.6857 119.997C84.9611 118.65 85.5988 116.67 85.5988 114.063C85.5988 111.454 84.7893 109.611 83.1732 108.532Z" fill="#E83E7E"/>
<path d="M87.3344 44.4171L56.5001 13.5432L25.6687 44.4171L18.9043 37.644L56.5001 0L94.0988 37.644L87.3344 44.4171Z" fill="#E83E7E"/>
</g>
<defs>
<clipPath id="clip0_1080_362">
<rect width="113" height="166" fill="white"/>
</clipPath>
</defs>
</svg>
